<svg width="41" height="40" viewBox="0 0 41 40" fill="none" xmlns="http://www.w3.org/2000/svg">
<path fill-rule="evenodd" clip-rule="evenodd" d="M27.8421 2.66367H33.0108V12.7912L40.4396 20.22L37.1429 23.5167L20.22 6.59373L3.29667 23.5167L0 20.22L20.22 0L27.8421 7.62215V2.66367ZM20.9569 39.6964C20.7631 39.8843 20.4994 40 20.2086 40C19.6151 40 19.1341 39.519 19.1341 38.9255C19.1341 38.6348 19.2498 38.371 19.4373 38.1772L30.3956 27.2283C30.5843 27.0271 30.6879 26.7684 30.6879 26.4921C30.6879 25.8986 30.2069 25.4176 29.6134 25.4176C29.3285 25.4176 29.0695 25.5286 28.8768 25.7099C28.8768 25.7095 20.1774 34.3667 19.3873 35.1533C18.8086 35.7069 18.0236 36.0473 17.1589 36.0473C15.3787 36.0473 13.9357 34.6043 13.9357 32.8241C13.9357 32.0629 14.1995 31.3639 14.6402 30.8125L24.3188 21.1413C24.4947 20.9503 24.6017 20.6951 24.6017 20.415C24.6017 19.8214 24.1207 19.3404 23.5272 19.3404C23.2177 19.3404 23.0071 19.4405 22.8 19.6225L13.1691 29.2449C12.6084 29.7173 11.8839 30.0021 11.0935 30.0021C9.31327 30.0021 7.87027 28.5588 7.87027 26.7789C7.87027 25.8505 8.26258 25.0144 8.89049 24.4263L19.8054 13.5294C19.9937 13.3672 20.2387 13.2691 20.5068 13.2691C21.1003 13.2691 21.5813 13.7501 21.5813 14.3437C21.5813 14.6117 21.4832 14.8567 21.3207 15.0446L10.378 25.9771C10.1577 26.1741 10.0189 26.4601 10.0189 26.7789C10.0189 27.3721 10.4999 27.8531 11.0935 27.8531C11.4119 27.8531 11.6983 27.7144 11.8949 27.4944L21.4528 17.9482C22.0131 17.4762 22.7371 17.1914 23.5272 17.1914C25.3074 17.1914 26.7508 18.6348 26.7508 20.415C26.7508 21.1949 26.4738 21.9103 26.0123 22.4679C22.8336 25.6434 19.6565 28.8182 16.4806 31.991C16.2387 32.1879 16.0848 32.488 16.0848 32.8241C16.0848 33.4176 16.5658 33.8986 17.1589 33.8986C17.4317 33.8986 17.6806 33.797 17.8701 33.6298C17.8775 33.6368 26.5242 25.0198 27.315 24.2321C27.9 23.6374 28.7135 23.2685 29.6134 23.2685C31.3936 23.2685 32.837 24.7119 32.837 26.4921C32.837 27.4205 32.4439 28.2575 31.8156 28.8456L20.9569 39.6964Z" fill="url(#paint0_linear_214_573)"/>
<defs>
<linearGradient id="paint0_linear_214_573" x1="20.8268" y1="39.2994" x2="20.8268" y2="0.535315" gradientUnits="userSpaceOnUse">
<stop stop-color="#FFA200"/>
<stop offset="1" stop-color="#FF4800"/>
</linearGradient>
</defs>
</svg>
