<svg width="108" height="40" viewBox="0 0 108 40" fill="none" xmlns="http://www.w3.org/2000/svg">
<path fill-rule="evenodd" clip-rule="evenodd" d="M27.8421 2.66367H33.0108V12.7912L40.4396 20.22L37.1429 23.5167L20.22 6.59373L3.29667 23.5167L0 20.22L20.22 0L27.8421 7.62215V2.66367ZM20.9569 39.6964C20.7631 39.8843 20.4994 40 20.2086 40C19.6151 40 19.1341 39.519 19.1341 38.9255C19.1341 38.6348 19.2498 38.371 19.4373 38.1772L30.3956 27.2283C30.5843 27.0271 30.6879 26.7684 30.6879 26.4921C30.6879 25.8986 30.2069 25.4176 29.6134 25.4176C29.3285 25.4176 29.0695 25.5286 28.8768 25.7099C28.8768 25.7095 20.1774 34.3667 19.3873 35.1533C18.8086 35.7069 18.0236 36.0473 17.1589 36.0473C15.3787 36.0473 13.9357 34.6043 13.9357 32.8241C13.9357 32.0629 14.1995 31.3639 14.6402 30.8125L24.3188 21.1413C24.4947 20.9503 24.6017 20.6951 24.6017 20.415C24.6017 19.8214 24.1207 19.3404 23.5272 19.3404C23.2177 19.3404 23.0071 19.4405 22.8 19.6225L13.1691 29.2449C12.6084 29.7173 11.8839 30.0021 11.0935 30.0021C9.31327 30.0021 7.87027 28.5588 7.87027 26.7789C7.87027 25.8505 8.26258 25.0144 8.89049 24.4263L19.8054 13.5294C19.9937 13.3672 20.2387 13.2691 20.5068 13.2691C21.1003 13.2691 21.5813 13.7501 21.5813 14.3437C21.5813 14.6117 21.4832 14.8567 21.3207 15.0446L10.378 25.9771C10.1577 26.1741 10.0189 26.4601 10.0189 26.7789C10.0189 27.3721 10.4999 27.8531 11.0935 27.8531C11.4119 27.8531 11.6983 27.7144 11.8949 27.4944L21.4528 17.9482C22.0131 17.4762 22.7371 17.1914 23.5272 17.1914C25.3074 17.1914 26.7508 18.6348 26.7508 20.415C26.7508 21.1949 26.4738 21.9103 26.0123 22.4679C22.8336 25.6434 19.6565 28.8182 16.4806 31.991C16.2387 32.1879 16.0848 32.488 16.0848 32.8241C16.0848 33.4176 16.5658 33.8986 17.1589 33.8986C17.4317 33.8986 17.6806 33.797 17.8701 33.6298C17.8775 33.6368 26.5242 25.0198 27.315 24.2321C27.9 23.6374 28.7135 23.2685 29.6134 23.2685C31.3936 23.2685 32.837 24.7119 32.837 26.4921C32.837 27.4205 32.4439 28.2575 31.8156 28.8456L20.9569 39.6964Z" fill="url(#paint0_linear_214_378)"/>
<path d="M55.7196 8.38H52.7276V6.3H61.0156V8.38H58.0396V17.5H55.7196V8.38ZM69.459 6.3V8.396H65.011V10.668H69.171V12.764H65.011V15.324H69.587V17.5H62.595V6.3H69.459ZM71.7512 6.3H80.8232V17.5H78.4232V8.476H74.1512V17.5H71.7512V6.3ZM87.0875 8.444L86.5435 14.284C86.4048 15.7347 86.0421 16.6787 85.4555 17.116C84.8688 17.5533 83.8341 17.6653 82.3515 17.452L82.3995 15.724C83.0501 15.788 83.4875 15.7133 83.7115 15.5C83.9355 15.2867 84.0848 14.8547 84.1595 14.204L84.9915 6.3H92.5275V17.5H90.1435V8.444H87.0875ZM105.942 11.9C105.942 13.6067 105.409 14.9987 104.342 16.076C103.276 17.1533 101.894 17.692 100.198 17.692C98.6089 17.692 97.2595 17.18 96.1502 16.156C95.0515 15.1213 94.5022 13.7027 94.5022 11.9C94.5022 10.6947 94.7742 9.644 95.3182 8.748C95.8729 7.852 96.5769 7.19067 97.4302 6.764C98.2942 6.33733 99.2329 6.124 100.246 6.124C100.993 6.124 101.702 6.252 102.374 6.508C103.046 6.764 103.649 7.12667 104.182 7.596C104.726 8.06533 105.153 8.67333 105.462 9.42C105.782 10.1667 105.942 10.9933 105.942 11.9ZM96.9182 11.9C96.9182 13.0627 97.2329 13.9533 97.8622 14.572C98.4915 15.1907 99.2809 15.5 100.23 15.5C101.169 15.5 101.958 15.1907 102.598 14.572C103.238 13.9533 103.558 13.0627 103.558 11.9C103.558 10.7693 103.238 9.89467 102.598 9.276C101.958 8.64667 101.174 8.332 100.246 8.332C99.3075 8.332 98.5182 8.64667 97.8782 9.276C97.2382 9.89467 96.9182 10.7693 96.9182 11.9ZM53.1116 27.916C53.1116 26.1347 53.6769 24.732 54.8076 23.708C55.9382 22.6733 57.2822 22.1667 58.8396 22.188C60.0769 22.188 61.1862 22.5293 62.1676 23.212C63.1489 23.884 63.7622 24.8707 64.0076 26.172H61.6876C61.2076 24.956 60.2582 24.348 58.8396 24.348C57.8476 24.348 57.0476 24.6787 56.4396 25.34C55.8316 25.9907 55.5276 26.8493 55.5276 27.916C55.5276 28.8973 55.8316 29.7293 56.4396 30.412C57.0476 31.0947 57.8422 31.436 58.8236 31.436C59.5382 31.436 60.1569 31.2653 60.6796 30.924C61.2022 30.5827 61.5542 30.0813 61.7356 29.42H64.0396C63.8156 30.8067 63.2129 31.852 62.2316 32.556C61.2502 33.26 60.1196 33.612 58.8396 33.612C58.0929 33.612 57.3782 33.4893 56.6956 33.244C56.0129 32.988 55.4049 32.6307 54.8716 32.172C54.3382 31.7027 53.9116 31.1 53.5916 30.364C53.2716 29.628 53.1116 28.812 53.1116 27.916ZM71.2835 27.596L75.7795 22.268H76.6435V33.5H74.2435V27.436L71.4275 30.956H71.1235L68.3075 27.436V33.5H65.9075V22.268H66.7875L71.2835 27.596ZM86.0996 22.3V24.396H81.6516V26.668H85.8116V28.764H81.6516V31.324H86.2276V33.5H79.2356V22.3H86.0996ZM90.3758 24.38H87.3838V22.3H95.6718V24.38H92.6958V33.5H90.3758V24.38ZM103.047 31.644H98.3911L97.5271 33.5H95.0311V33.18L100.183 22.204H101.287L106.407 33.18V33.5H103.927L103.047 31.644ZM100.727 25.932L99.1751 29.628H102.279L100.727 25.932Z" fill="#2F3644"/>
<defs>
<linearGradient id="paint0_linear_214_378" x1="20.8268" y1="39.2994" x2="20.8268" y2="0.535315" gradientUnits="userSpaceOnUse">
<stop stop-color="#FFA200"/>
<stop offset="1" stop-color="#FF4800"/>
</linearGradient>
</defs>
</svg>
