<svg width="24" height="24" viewBox="0 0 24 24" fill="none" xmlns="http://www.w3.org/2000/svg">
<path d="M21.9539 2.84331C21.9539 2.84331 24.1741 1.9776 23.989 4.08005C23.9274 4.94578 23.3724 7.97578 22.9406 11.2532L21.4605 20.9616C21.4605 20.9616 21.3372 22.3838 20.2271 22.6312C19.117 22.8785 17.4519 21.7654 17.1435 21.5181C16.8968 21.3326 12.5182 18.5499 10.9763 17.1895C10.5446 16.8185 10.0513 16.0764 11.038 15.2107L17.5136 9.02704C18.2536 8.28498 18.9937 6.55355 15.9101 8.65601L7.27606 14.5305C7.27606 14.5305 6.28932 15.1489 4.4392 14.5924L0.430527 13.3556C0.430527 13.3556 -1.04959 12.4281 1.47894 11.5005C7.64612 8.59412 15.2317 5.62595 21.9539 2.84331Z" fill="#03A5FC"/>
</svg>
