<svg width="24" height="24" viewBox="0 0 24 24" fill="none" xmlns="http://www.w3.org/2000/svg">
<g clip-path="url(#clip0_214_558)">
<path d="M8.325 0H15.6875C22.4125 0 24 1.6 24 8.325V15.6875C24 22.4125 22.4 24 15.675 24H8.3125C1.5875 24 0 22.4 0 15.675V8.3125C0 1.6 1.6 0 8.325 0Z" fill="#03A5FC"/>
<mask id="mask0_214_558" style="mask-type:luminance" maskUnits="userSpaceOnUse" x="0" y="0" width="24" height="24">
<path d="M8.325 0H15.6875C22.4125 0 24 1.6 24 8.325V15.6875C24 22.4125 22.4 24 15.675 24H8.3125C1.5875 24 0 22.4 0 15.675V8.3125C0 1.6 1.6 0 8.325 0Z" fill="white"/>
</mask>
<g mask="url(#mask0_214_558)">
<path d="M-0.625 -0.625H24.625V24.625H-0.625V-0.625Z" fill="#03A5FC"/>
</g>
<path fill-rule="evenodd" clip-rule="evenodd" d="M19.6316 8.60395C19.7442 8.24868 19.6316 8 19.1064 8H17.3556C16.9055 8 16.7054 8.225 16.5928 8.47368C16.5928 8.47368 15.705 10.5342 14.4419 11.8605C14.0292 12.2513 13.8542 12.3697 13.6291 12.3697C13.5165 12.3697 13.354 12.2513 13.354 11.8961V8.60395C13.354 8.17763 13.2289 8 12.8537 8H10.1026C9.82747 8 9.65239 8.20132 9.65239 8.37895C9.65239 8.78158 10.2777 8.87632 10.3527 9.98947V12.4289C10.3527 12.9618 10.2526 13.0566 10.0275 13.0566C9.4398 13.0566 7.98919 10.9961 7.13883 8.62763C6.96375 8.18947 6.80118 8 6.35099 8H4.60025C4.10004 8 4 8.225 4 8.47368C4 8.91184 4.58775 11.0908 6.76367 13.9684C8.21428 15.9342 10.2526 17 12.1034 17C13.2164 17 13.354 16.7632 13.354 16.3605V14.8684C13.354 14.3947 13.454 14.3 13.8167 14.3C14.0793 14.3 14.5169 14.4184 15.5549 15.3658C16.7429 16.4908 16.943 17 17.6058 17H19.3565C19.8567 17 20.1068 16.7632 19.9568 16.3013C19.7942 15.8395 19.2314 15.1645 18.4811 14.3592C18.0685 13.8974 17.4557 13.4118 17.2806 13.1632C17.018 12.8434 17.093 12.7013 17.2806 12.4289C17.2806 12.4171 19.419 9.575 19.6316 8.60395Z" fill="white"/>
</g>
<defs>
<clipPath id="clip0_214_558">
<rect width="24" height="24" fill="white"/>
</clipPath>
</defs>
</svg>
