<svg width="16" height="17" viewBox="0 0 16 17" fill="none" xmlns="http://www.w3.org/2000/svg">
<path d="M15.6228 12.4596C15.8742 12.711 15.9999 13.0163 15.9999 13.3754C15.9999 13.7346 15.8742 14.0398 15.6228 14.2912L13.7912 16.1229C13.5398 16.3743 13.2345 16.5 12.8754 16.5C12.5163 16.5 12.211 16.3743 11.9596 16.1229L7.99999 12.1633L4.0404 16.1229C3.789 16.3743 3.48372 16.5 3.12457 16.5C2.76543 16.5 2.46015 16.3743 2.20875 16.1229L0.377104 14.2912C0.125702 14.0398 0 13.7346 0 13.3754C0 13.0163 0.125702 12.711 0.377104 12.4596L4.33669 8.49998L0.377104 4.54039C0.125702 4.28899 0 3.98372 0 3.62457C0 3.26543 0.125702 2.96015 0.377104 2.70875L2.20875 0.877104C2.46015 0.625701 2.76543 0.5 3.12457 0.5C3.48372 0.5 3.789 0.625701 4.0404 0.877104L7.99999 4.8367L11.9596 0.877104C12.211 0.625701 12.5163 0.5 12.8754 0.5C13.2345 0.5 13.5398 0.625701 13.7912 0.877104L15.6228 2.70875C15.8742 2.96015 15.9999 3.26543 15.9999 3.62457C15.9999 3.98372 15.8742 4.28899 15.6228 4.54039L11.6632 8.49998L15.6228 12.4596Z" fill="#A2A9B4"/>
</svg>
